# xmcd CD database file
#
# Track frame offsets:
#	150
#	32346
#	53663
#	71694
#	105089
#	121272
#	150185
#	167399
#	184228
#	202298
#	238504
#	246603
#	266378
#	285827
#	307364
#
# Disc length: 4251 seconds
#
# Revision: 0
# Processed by: cddbd v1.5.1PL2 Copyright (c) Steve Scherf et al.
# Submitted via: CDex 1.70beta1
#
DISCID=c410990f
DTITLE=Дом Художника - Сборник света
DYEAR=2005
DGENRE=Jazz
TTITLE0=К дороге
TTITLE1=Любовь по- моему 
TTITLE2=Приближение
TTITLE3=Ночь с открытой дверью 
TTITLE4=Африка
TTITLE5=к Сотворению
TTITLE6=высокая
TTITLE7=Коник
TTITLE8=как по небу
TTITLE9=Сундук 
TTITLE10=ах , если бы....
TTITLE11=к Дождю
TTITLE12=Ночная
TTITLE13=Ветер Снам не верит 
TTITLE14=у Воды
EXTD=YEAR: 2005
EXTT0=
EXTT1=
EXTT2=
EXTT3=
EXTT4=
EXTT5=
EXTT6=
EXTT7=
EXTT8=
EXTT9=
EXTT10=
EXTT11=
EXTT12=
EXTT13=
EXTT14=
PLAYORDER=
